<svg width="14" height="14" viewBox="0 0 14 14" fill="none" xmlns="http://www.w3.org/2000/svg">
<path d="M1.33331 4.87184H10.6666V3.20518C10.6666 3.15384 10.6453 3.10684 10.6025 3.06418C10.5598 3.0214 10.5128 3.00001 10.4615 3.00001H1.53848C1.48715 3.00001 1.44015 3.0214 1.39748 3.06418C1.3547 3.10684 1.33331 3.15384 1.33331 3.20518V4.87184ZM1.53848 13.3333C1.2017 13.3333 0.916646 13.2167 0.683313 12.9833C0.44998 12.75 0.333313 12.465 0.333313 12.1282V3.20518C0.333313 2.8684 0.44998 2.58334 0.683313 2.35001C0.916646 2.11668 1.2017 2.00001 1.53848 2.00001H2.46148V1.10251C2.46148 0.956399 2.51042 0.834399 2.60831 0.73651C2.7062 0.638732 2.8282 0.589844 2.97431 0.589844C3.12054 0.589844 3.24254 0.638732 3.34031 0.73651C3.4382 0.834399 3.48715 0.956399 3.48715 1.10251V2.00001H8.53848V1.08984C8.53848 0.947955 8.58631 0.829121 8.68198 0.733344C8.77776 0.637677 8.89659 0.589844 9.03848 0.589844C9.18037 0.589844 9.29915 0.637677 9.39481 0.733344C9.49059 0.829121 9.53848 0.947955 9.53848 1.08984V2.00001H10.4615C10.7983 2.00001 11.0833 2.11668 11.3166 2.35001C11.55 2.58334 11.6666 2.8684 11.6666 3.20518V6.34751C11.6666 6.4894 11.6188 6.60818 11.523 6.70384C11.4273 6.79962 11.3085 6.84751 11.1666 6.84751C11.0248 6.84751 10.906 6.79962 10.8103 6.70384C10.7145 6.60818 10.6666 6.4894 10.6666 6.34751V5.87184H1.33331V12.1282C1.33331 12.1795 1.3547 12.2265 1.39748 12.2692C1.44015 12.312 1.48715 12.3333 1.53848 12.3333H5.61665C5.75854 12.3333 5.87737 12.3812 5.97315 12.477C6.06881 12.5727 6.11665 12.6915 6.11665 12.8333C6.11665 12.9752 6.06881 13.094 5.97315 13.1897C5.87737 13.2855 5.75854 13.3333 5.61665 13.3333H1.53848ZM10.1281 14C9.2957 14 8.58759 13.7081 8.00381 13.1243C7.42004 12.5406 7.12815 11.8325 7.12815 11C7.12815 10.1676 7.42004 9.45946 8.00381 8.87568C8.58759 8.2919 9.2957 8.00001 10.1281 8.00001C10.9607 8.00001 11.6688 8.2919 12.2525 8.87568C12.8363 9.45946 13.1281 10.1676 13.1281 11C13.1281 11.8325 12.8363 12.5406 12.2525 13.1243C11.6688 13.7081 10.9607 14 10.1281 14ZM10.4231 10.8795V9.33334C10.4231 9.25301 10.394 9.18379 10.3358 9.12568C10.2777 9.06757 10.2085 9.03851 10.1281 9.03851C10.0478 9.03851 9.97859 9.06757 9.92048 9.12568C9.86237 9.18379 9.83331 9.25301 9.83331 9.33334V10.8692C9.83331 10.9495 9.84787 11.026 9.87698 11.0987C9.90598 11.1713 9.9517 11.2389 10.0141 11.3013L11.0308 12.318C11.0889 12.3761 11.1571 12.4062 11.2353 12.4083C11.3134 12.4105 11.3837 12.3803 11.4461 12.318C11.5086 12.2556 11.5398 12.1863 11.5398 12.1103C11.5398 12.0342 11.5086 11.965 11.4461 11.9025L10.4231 10.8795Z" fill="#FDF0F2"/>
</svg>
