<svg width="14" height="14" viewBox="0 0 14 14" fill="none" xmlns="http://www.w3.org/2000/svg">
<path d="M7.00085 13.3333C6.50563 13.3333 6.08469 13.16 5.73802 12.8135C5.39135 12.467 5.21802 12.0463 5.21802 11.5513C5.21802 11.4829 5.22291 11.4122 5.23269 11.3392C5.24258 11.266 5.25735 11.1953 5.27702 11.1268L3.69485 10.2347C3.53419 10.3944 3.34752 10.5181 3.13485 10.6057C2.92208 10.6933 2.69335 10.7372 2.44869 10.7372C1.95369 10.7372 1.53296 10.5634 1.18652 10.2158C0.839965 9.86827 0.666687 9.44627 0.666687 8.94982C0.666687 8.45338 0.839965 8.03099 1.18652 7.68266C1.53296 7.33443 1.95369 7.16032 2.44869 7.16032C2.70602 7.16032 2.9473 7.21138 3.17252 7.31349C3.39774 7.4156 3.59408 7.55771 3.76152 7.73982L5.91152 6.65649C5.86108 6.3966 5.86858 6.14016 5.93402 5.88716C5.99935 5.63416 6.11835 5.40638 6.29102 5.20382L5.58985 4.15132C5.50774 4.1821 5.42085 4.20516 5.32919 4.22049C5.23752 4.23582 5.14274 4.24349 5.04485 4.24349C4.54985 4.24349 4.12913 4.06977 3.78269 3.72232C3.43613 3.37477 3.26285 2.95277 3.26285 2.45632C3.26285 1.95977 3.43619 1.53738 3.78285 1.18916C4.12952 0.840823 4.55046 0.666656 5.04569 0.666656C5.54091 0.666656 5.96374 0.840545 6.31419 1.18832C6.66452 1.5361 6.83969 1.95838 6.83969 2.45516C6.83969 2.67305 6.80147 2.88049 6.72502 3.07749C6.64846 3.2746 6.54485 3.45005 6.41419 3.60382L7.12569 4.65649C7.21458 4.62571 7.3013 4.6026 7.38585 4.58716C7.47041 4.57182 7.56102 4.56416 7.65769 4.56416C7.84502 4.56416 8.02135 4.58955 8.18669 4.64032C8.35202 4.69121 8.50602 4.76538 8.64869 4.86282L9.91535 3.82816C9.86669 3.71705 9.82802 3.60316 9.79935 3.48649C9.7708 3.36982 9.75652 3.24827 9.75652 3.12182C9.75652 2.62505 9.9298 2.20277 10.2764 1.85499C10.623 1.50721 11.044 1.33332 11.5392 1.33332C12.0344 1.33332 12.4572 1.5071 12.8077 1.85466C13.1581 2.20221 13.3334 2.62421 13.3334 3.12066C13.3334 3.6171 13.1581 4.03949 12.8077 4.38782C12.4572 4.73605 12.0342 4.91016 11.5385 4.91016C11.3496 4.91016 11.174 4.88199 11.0115 4.82566C10.8492 4.76921 10.6966 4.69227 10.5539 4.59482L9.29352 5.63966C9.34652 5.75288 9.3863 5.86888 9.41285 5.98766C9.4393 6.10643 9.45252 6.22805 9.45252 6.35249C9.45252 6.84938 9.2773 7.27166 8.92685 7.61932C8.57652 7.9671 8.15346 8.14099 7.65769 8.14099C7.39958 8.14099 7.15858 8.08888 6.93469 7.98466C6.71069 7.88032 6.51497 7.73716 6.34752 7.55516L4.20769 8.62816C4.24269 8.74949 4.25602 8.8716 4.24769 8.99449C4.23924 9.11727 4.21824 9.24005 4.18469 9.36282L5.77052 10.2653C5.93119 10.1055 6.11519 9.98182 6.32252 9.89416C6.52974 9.8066 6.75558 9.76282 7.00002 9.76282C7.49569 9.76282 7.91874 9.93616 8.26919 10.2828C8.61963 10.6295 8.79485 11.0504 8.79485 11.5457C8.79485 12.0409 8.61963 12.4626 8.26919 12.8108C7.91874 13.1592 7.49596 13.3333 7.00085 13.3333ZM2.45202 9.73716C2.67291 9.73716 2.86008 9.66166 3.01352 9.51066C3.16696 9.35955 3.24369 9.17232 3.24369 8.94899C3.24369 8.72577 3.16746 8.53743 3.01502 8.38399C2.86269 8.23055 2.67391 8.15382 2.44869 8.15382C2.22991 8.15382 2.04491 8.22999 1.89369 8.38232C1.74235 8.53466 1.66669 8.72343 1.66669 8.94866C1.66669 9.16755 1.74235 9.35366 1.89369 9.50699C2.04491 9.66043 2.23102 9.73716 2.45202 9.73716ZM5.04802 3.24366C5.26902 3.24366 5.45624 3.1681 5.60969 3.01699C5.76313 2.86599 5.83985 2.67882 5.83985 2.45549C5.83985 2.23216 5.76363 2.04488 5.61119 1.89366C5.45885 1.74232 5.27008 1.66666 5.04485 1.66666C4.82608 1.66666 4.64102 1.74338 4.48969 1.89682C4.33846 2.05027 4.26285 2.23638 4.26285 2.45516C4.26285 2.67393 4.33846 2.86005 4.48969 3.01349C4.64102 3.16693 4.82713 3.24366 5.04802 3.24366ZM7.00319 12.3397C7.22419 12.3397 7.4103 12.2642 7.56152 12.1132C7.71285 11.962 7.78852 11.7749 7.78852 11.5517C7.78852 11.3283 7.71296 11.141 7.56185 10.9897C7.41074 10.8384 7.22346 10.7628 7.00002 10.7628C6.78124 10.7628 6.59513 10.8395 6.44169 10.993C6.28824 11.1463 6.21152 11.3324 6.21152 11.5513C6.21152 11.7701 6.28824 11.9562 6.44169 12.1097C6.59513 12.263 6.7823 12.3397 7.00319 12.3397ZM7.65069 7.14099C7.87158 7.14099 8.05769 7.06549 8.20902 6.91449C8.36024 6.76338 8.43585 6.57616 8.43585 6.35282C8.43585 6.1296 8.3603 5.94232 8.20919 5.79099C8.05808 5.63977 7.87085 5.56416 7.64752 5.56416C7.42863 5.56416 7.24252 5.64082 7.08919 5.79416C6.93574 5.9476 6.85902 6.13371 6.85902 6.35249C6.85902 6.57138 6.93574 6.75749 7.08919 6.91082C7.24252 7.06427 7.42969 7.14099 7.65069 7.14099ZM11.5417 3.91032C11.7626 3.91032 11.9497 3.83477 12.1032 3.68366C12.2566 3.53266 12.3334 3.34549 12.3334 3.12216C12.3334 2.89882 12.2572 2.71155 12.1049 2.56032C11.9525 2.40899 11.7637 2.33332 11.5385 2.33332C11.3196 2.33332 11.1346 2.40888 10.9834 2.55999C10.832 2.7111 10.7564 2.89838 10.7564 3.12182C10.7564 3.3406 10.832 3.52671 10.9834 3.68016C11.1346 3.8336 11.3207 3.91032 11.5417 3.91032Z" fill="#A6A6A6"/>
</svg>
