<svg width="16" height="8" viewBox="0 0 16 8" fill="none" xmlns="http://www.w3.org/2000/svg">
<path d="M0.910374 7.85899C0.74693 7.85899 0.609874 7.80372 0.499207 7.69316C0.388652 7.58249 0.333374 7.44544 0.333374 7.28199V7.04616C0.333374 6.6026 0.564985 6.23827 1.02821 5.95316C1.49154 5.66816 2.09543 5.52566 2.83987 5.52566C2.96287 5.52566 3.08676 5.52949 3.21154 5.53716C3.33632 5.54483 3.46199 5.55977 3.58854 5.58199C3.45865 5.78977 3.36226 6.00538 3.29937 6.22883C3.2366 6.45238 3.20521 6.68166 3.20521 6.91666V7.85899H0.910374ZM4.93854 7.85899C4.76499 7.85899 4.62076 7.80122 4.50587 7.68566C4.39087 7.57022 4.33337 7.4271 4.33337 7.25633V6.94233C4.33337 6.63022 4.42099 6.34494 4.59621 6.08649C4.77143 5.82794 5.02399 5.60255 5.35387 5.41033C5.68376 5.21799 6.07354 5.07377 6.52321 4.97766C6.97276 4.88144 7.46421 4.83333 7.99754 4.83333C8.5411 4.83333 9.03765 4.88144 9.48721 4.97766C9.93676 5.07377 10.3265 5.21799 10.6564 5.41033C10.9864 5.60255 11.2373 5.82794 11.409 6.08649C11.5808 6.34494 11.6667 6.63022 11.6667 6.94233V7.25633C11.6667 7.4271 11.6089 7.57022 11.4934 7.68566C11.3779 7.80122 11.2348 7.85899 11.064 7.85899H4.93854ZM12.7949 7.85899V6.91749C12.7949 6.66649 12.7652 6.43033 12.7059 6.20899C12.6464 5.98766 12.5573 5.77866 12.4385 5.58199C12.5693 5.55977 12.6943 5.54483 12.8135 5.53716C12.9328 5.52949 13.0505 5.52566 13.1667 5.52566C13.9112 5.52566 14.5139 5.66649 14.975 5.94816C15.4362 6.22972 15.6667 6.59572 15.6667 7.04616V7.28199C15.6667 7.44544 15.6114 7.58249 15.5009 7.69316C15.3902 7.80372 15.2532 7.85899 15.0897 7.85899H12.7949ZM5.38471 6.85899H10.6257V6.78849C10.5574 6.51927 10.2736 6.29277 9.77437 6.10899C9.27526 5.92522 8.68382 5.83333 8.00004 5.83333C7.31626 5.83333 6.72482 5.92522 6.22571 6.10899C5.72649 6.29277 5.44615 6.51927 5.38471 6.78849V6.85899ZM2.83804 4.87816C2.52382 4.87816 2.25537 4.76644 2.03271 4.54299C1.81004 4.31955 1.69871 4.05094 1.69871 3.73716C1.69871 3.41927 1.81049 3.15072 2.03404 2.93149C2.25749 2.71227 2.5261 2.60266 2.83987 2.60266C3.15776 2.60266 3.42737 2.71227 3.64871 2.93149C3.87015 3.15072 3.98087 3.41994 3.98087 3.73916C3.98087 4.04894 3.87132 4.31622 3.65221 4.54099C3.43321 4.76577 3.16182 4.87816 2.83804 4.87816ZM13.1667 4.87816C12.8556 4.87816 12.5877 4.76577 12.3629 4.54099C12.1381 4.31622 12.0257 4.04894 12.0257 3.73916C12.0257 3.41994 12.1381 3.15072 12.3629 2.93149C12.5877 2.71227 12.856 2.60266 13.1679 2.60266C13.4893 2.60266 13.7597 2.71227 13.9789 2.93149C14.1981 3.15072 14.3077 3.41927 14.3077 3.73716C14.3077 4.05094 14.1984 4.31955 13.9797 4.54299C13.761 4.76644 13.49 4.87816 13.1667 4.87816ZM8.00237 4.33333C7.52215 4.33333 7.11326 4.16505 6.77571 3.82849C6.43815 3.49205 6.26937 3.08344 6.26937 2.60266C6.26937 2.11221 6.4376 1.70116 6.77404 1.36949C7.1106 1.03771 7.51926 0.871826 8.00004 0.871826C8.49037 0.871826 8.90143 1.03749 9.23321 1.36883C9.56487 1.70005 9.73071 2.11055 9.73071 2.60033C9.73071 3.08044 9.5651 3.48933 9.23388 3.82699C8.90254 4.16455 8.49204 4.33333 8.00237 4.33333ZM8.00321 3.33333C8.2071 3.33333 8.37932 3.26199 8.51987 3.11933C8.66054 2.97655 8.73087 2.80322 8.73087 2.59933C8.73087 2.39555 8.66082 2.22333 8.52071 2.08266C8.3806 1.9421 8.20704 1.87183 8.00004 1.87183C7.79837 1.87183 7.62615 1.94188 7.48337 2.08199C7.3406 2.22199 7.26921 2.39555 7.26921 2.60266C7.26921 2.80433 7.3406 2.97655 7.48337 3.11933C7.62615 3.26199 7.79943 3.33333 8.00321 3.33333Z" fill="#A6A6A6"/>
</svg>
