<svg width="19" height="20" viewBox="0 0 19 20" fill="none" xmlns="http://www.w3.org/2000/svg">
<path d="M2.5 18.1667H6.40396V12.2884C6.40396 11.9898 6.50497 11.7393 6.707 11.5371C6.90922 11.3351 7.15967 11.2341 7.45833 11.2341H11.5417C11.8403 11.2341 12.0908 11.3351 12.293 11.5371C12.495 11.7393 12.596 11.9898 12.596 12.2884V18.1667H16.5V7.84607C16.5 7.78638 16.4869 7.73222 16.4606 7.68361C16.4346 7.635 16.3991 7.59193 16.3542 7.5544L9.71321 2.56253C9.65332 2.51022 9.58225 2.48407 9.5 2.48407C9.41775 2.48407 9.34668 2.51022 9.28679 2.56253L2.64583 7.5544C2.60092 7.59193 2.56543 7.635 2.53938 7.68361C2.51313 7.73222 2.5 7.78638 2.5 7.84607V18.1667ZM0.75 18.1667V7.84607C0.75 7.51221 0.824666 7.19595 0.974 6.89728C1.12353 6.59842 1.33003 6.35235 1.5935 6.15907L8.23475 1.15582C8.60322 0.874654 9.02439 0.73407 9.49825 0.73407C9.97211 0.73407 10.3944 0.874654 10.7653 1.15582L17.4065 6.15907C17.67 6.35235 17.8765 6.59842 18.026 6.89728C18.1753 7.19595 18.25 7.51221 18.25 7.84607V18.1667C18.25 18.6439 18.0776 19.0548 17.7329 19.3996C17.3881 19.7443 16.9772 19.9167 16.5 19.9167H11.9007C11.6018 19.9167 11.3514 19.8156 11.1494 19.6134C10.9472 19.4113 10.846 19.1609 10.846 18.862V12.9841H8.15396V18.862C8.15396 19.1609 8.05285 19.4113 7.85063 19.6134C7.6486 19.8156 7.39815 19.9167 7.09929 19.9167H2.5C2.02283 19.9167 1.61187 19.7443 1.26712 19.3996C0.922375 19.0548 0.75 18.6439 0.75 18.1667Z" fill="#A6A6A6"/>
</svg>
