<svg width="23" height="24" viewBox="0 0 23 24" fill="none" xmlns="http://www.w3.org/2000/svg">
<path d="M8.3333 8.85906V20.9743C8.3333 21.0791 8.36694 21.1652 8.43422 21.2324C8.50149 21.2997 8.58754 21.3333 8.69234 21.3333H16.5V17.7211C16.5 17.4204 16.6006 17.1696 16.8018 16.9686C17.0029 16.7673 17.2537 16.6667 17.5543 16.6667H21.1666V8.85906C21.1666 8.75425 21.133 8.66821 21.0657 8.60093C20.9984 8.53366 20.9124 8.50002 20.8076 8.50002H8.69234C8.58754 8.50002 8.50149 8.53366 8.43422 8.60093C8.36694 8.66821 8.3333 8.75425 8.3333 8.85906ZM6.5833 20.9743V8.84098C6.5833 8.2592 6.79233 7.76531 7.21038 7.35931C7.62844 6.95311 8.12836 6.75002 8.71013 6.75002H20.8076C21.3894 6.75002 21.8864 6.95603 22.2986 7.36806C22.7106 7.78028 22.9166 8.27728 22.9166 8.85906V16.7136C22.9166 16.995 22.862 17.2654 22.7527 17.5248C22.6436 17.7843 22.4933 18.0098 22.3018 18.2011L18.0344 22.4685C17.8431 22.66 17.6176 22.8104 17.3581 22.9194C17.0987 23.0287 16.8283 23.0833 16.5469 23.0833H8.69234C8.11056 23.0833 7.61356 22.8773 7.20134 22.4653C6.78931 22.0531 6.5833 21.5561 6.5833 20.9743ZM0.779133 5.49352C0.67005 4.91174 0.783411 4.38752 1.11922 3.92085C1.45483 3.45418 1.91362 3.16631 2.49559 3.05723L14.4358 0.94585C15.0058 0.836767 15.521 0.953045 15.9817 1.29468C16.4423 1.63652 16.7392 2.09239 16.8724 2.66231L17.0541 3.60002C17.1214 3.89168 17.0761 4.12424 16.9182 4.29768C16.7605 4.47132 16.5733 4.5738 16.3565 4.6051C16.1395 4.6366 15.9334 4.5981 15.7381 4.4896C15.5431 4.3811 15.4082 4.18102 15.3333 3.88935L15.1291 2.91343C15.1142 2.83118 15.0692 2.76575 14.9944 2.71714C14.9197 2.66853 14.8375 2.65171 14.7476 2.66668L2.80301 4.78914C2.6982 4.80411 2.61965 4.85273 2.56734 4.93498C2.51504 5.01723 2.49627 5.11075 2.51105 5.21556L4.4518 16.2808C4.49516 16.5217 4.4518 16.7416 4.32172 16.9406C4.19163 17.1395 4.00623 17.2643 3.76551 17.3151C3.5172 17.366 3.29466 17.3196 3.09788 17.1759C2.9013 17.0324 2.78133 16.8365 2.73797 16.5882L0.779133 5.49352Z" fill="#A6A6A6"/>
</svg>
