<svg width="23" height="19" viewBox="0 0 23 19" fill="none" xmlns="http://www.w3.org/2000/svg">
<path d="M4.68491 15.6379C4.34094 15.4466 4.07134 15.1884 3.87612 14.8633C3.6809 14.5382 3.58329 14.1735 3.58329 13.7692V8.70764L1.25462 7.41993C1.06309 7.31065 0.922509 7.17775 0.83287 7.02122C0.743037 6.86489 0.69812 6.69106 0.69812 6.49972C0.69812 6.30839 0.743037 6.13465 0.83287 5.97852C0.922509 5.82218 1.06309 5.68938 1.25462 5.5801L10.1621 0.726766C10.3202 0.638877 10.483 0.574321 10.6507 0.533099C10.8183 0.492071 10.9903 0.471558 11.1666 0.471558C11.343 0.471558 11.515 0.492071 11.6826 0.533099C11.8502 0.574321 12.0132 0.63878 12.1717 0.726474L22.2319 6.20164C22.4113 6.29886 22.549 6.43031 22.6449 6.59597C22.7405 6.76184 22.7884 6.94072 22.7884 7.13264V14.016C22.7884 14.2639 22.7045 14.4718 22.5367 14.6396C22.3689 14.8072 22.161 14.891 21.9131 14.891C21.665 14.891 21.4572 14.8072 21.2898 14.6396C21.1222 14.4718 21.0384 14.2639 21.0384 14.016V7.46922L18.75 8.70764V13.7692C18.75 14.1735 18.6523 14.5382 18.4571 14.8633C18.2619 15.1884 17.9923 15.4466 17.6483 15.6379L12.174 18.5975C12.014 18.6871 11.8502 18.7525 11.6826 18.7938C11.515 18.8348 11.343 18.8553 11.1666 18.8553C10.9903 18.8553 10.8183 18.8348 10.6507 18.7938C10.483 18.7525 10.3192 18.6871 10.1592 18.5975L4.68491 15.6379ZM11.0319 10.7493C11.0844 10.7793 11.1311 10.7942 11.1722 10.7942C11.2134 10.7942 11.2601 10.7793 11.3125 10.7493L19.1472 6.50002L11.3125 2.26181C11.2601 2.23186 11.2134 2.21689 11.1722 2.21689C11.1311 2.21689 11.0844 2.23186 11.0319 2.26181L3.18604 6.50002L11.0319 10.7493ZM11.0208 17.0828C11.0731 17.1128 11.1217 17.1278 11.1666 17.1278C11.2115 17.1278 11.2601 17.1128 11.3125 17.0828L16.8317 14.1011C16.8916 14.0638 16.9345 14.0208 16.9606 13.9722C16.9868 13.9236 17 13.8619 17 13.787V9.64097L12.1918 12.2817C12.0318 12.3714 11.8658 12.4368 11.694 12.478C11.5219 12.5192 11.3461 12.5398 11.1666 12.5398C10.9871 12.5398 10.8114 12.5192 10.6393 12.478C10.4674 12.4368 10.3014 12.3714 10.1414 12.2817L5.33329 9.64097V13.787C5.33329 13.8469 5.34641 13.9049 5.37266 13.9611C5.39872 14.0171 5.44169 14.0638 5.50158 14.1011L11.0208 17.0828Z" fill="#303030"/>
</svg>
