<svg width="21" height="21" viewBox="0 0 21 21" fill="none" xmlns="http://www.w3.org/2000/svg">
<path d="M7.60583 15.2178C5.61355 15.2178 3.92636 14.5268 2.54425 13.1449C1.16233 11.7628 0.471375 10.0756 0.471375 8.08331C0.471375 6.09103 1.16233 4.40384 2.54425 3.02173C3.92636 1.63981 5.61355 0.948853 7.60583 0.948853C9.59811 0.948853 11.2853 1.63981 12.6674 3.02173C14.0493 4.40384 14.7403 6.09103 14.7403 8.08331C14.7403 8.9165 14.6005 9.71227 14.3209 10.4706C14.0411 11.2289 13.6678 11.8885 13.2012 12.4493L19.9142 19.1623C20.0757 19.3237 20.1584 19.5267 20.1621 19.7713C20.1658 20.0159 20.0831 20.2227 19.9142 20.3916C19.7452 20.5606 19.5402 20.6451 19.2993 20.6451C19.0586 20.6451 18.8538 20.5606 18.6848 20.3916L11.9718 13.6786C11.3885 14.1603 10.7176 14.5372 9.95929 14.8094C9.20096 15.0817 8.41647 15.2178 7.60583 15.2178ZM7.60583 13.4681C9.10908 13.4681 10.3823 12.9464 11.4255 11.903C12.4689 10.8598 12.9906 9.58656 12.9906 8.08331C12.9906 6.58006 12.4689 5.30684 11.4255 4.26364C10.3823 3.22025 9.10908 2.69856 7.60583 2.69856C6.10258 2.69856 4.82936 3.22025 3.78617 4.26364C2.74278 5.30684 2.22108 6.58006 2.22108 8.08331C2.22108 9.58656 2.74278 10.8598 3.78617 11.903C4.82936 12.9464 6.10258 13.4681 7.60583 13.4681Z" fill="#A6A6A6"/>
</svg>
